<svg xmlns="http://www.w3.org/2000/svg" xml:space="preserve" id="Layer_1" width="232" height="259" x="0" y="0" version="1.0" viewBox="0 0 232 259"><path fill="#EE2C5A" d="M211.203 197.375c.613 8.261-6.716 15-15 15l-159.5 8c-8.284 0-17.594-7.132-15-15 22.75-69 21.75-102.5 23-138.5.288-8.279 6.716-15 15-15l115.5-6c8.284 0 13.055 6.947 15 15 10.75 44.5 17.75 92.75 21 136.5z"/><path fill="none" stroke="#515251" stroke-linecap="round" stroke-linejoin="round" stroke-miterlimit="10" stroke-width="4" d="M155.994 58.875c-.686-20.041-17.168-36.25-37.375-36.25-20.642 0-37.375 16.421-37.375 37.063"/><circle cx="81.828" cy="67.25" r="7.375" fill="none" stroke="#515251" stroke-linecap="round" stroke-linejoin="round" stroke-miterlimit="10" stroke-width="4"/><circle cx="155.994" cy="66.25" r="7.375" fill="none" stroke="#515251" stroke-linecap="round" stroke-linejoin="round" stroke-miterlimit="10" stroke-width="4"/><path fill="none" stroke="#FFF" stroke-linecap="round" stroke-linejoin="round" stroke-miterlimit="10" stroke-width="4" d="M106.256 122.875c0-4.556-3.19-8.25-7.125-8.25s-7.125 3.694-7.125 8.25M149.581 122.615c0-4.556-3.191-8.25-7.125-8.25-3.936 0-7.125 3.694-7.125 8.25M141.127 163.375c-.068-10.366-8.486-18.75-18.869-18.75s-18.801 8.384-18.869 18.75"/><ellipse cx="116.846" cy="232.5" fill="#F1F1F1" rx="94.393" ry="5.875"/></svg>