<svg xmlns="http://www.w3.org/2000/svg" width="60" height="60" viewBox="0 0 60 60"><defs><style>.cls-2{fill:#124d64}</style></defs><g id="box" transform="translate(-150.829 -671.829)"><path id="Rectangle_3124" fill="none" d="M0 0h60v60H0z" transform="translate(150.829 671.829)"/><g id="Group_12763" transform="translate(155.511 678.128)"><path id="Path_36776" d="M47.944 10.774a1.64 1.64 0 0 0 1.643-1.644V4.244a1.644 1.644 0 0 0-3.287 0V9.13a1.64 1.64 0 0 0 1.644 1.644z" class="cls-2" transform="translate(-22.626)"/><path id="Path_36777" d="M63.311 16.052a1.6 1.6 0 0 0 .888.267 1.652 1.652 0 0 0 1.422-.8l2.579-4.131a1.676 1.676 0 1 0-2.843-1.777l-2.577 4.132a1.662 1.662 0 0 0 .531 2.309z" class="cls-2" transform="translate(-31.64 -3.457)"/><path id="Path_36778" d="M26.954 15.519a1.7 1.7 0 0 0 1.422.8 1.6 1.6 0 0 0 .889-.267 1.662 1.662 0 0 0 .533-2.31l-2.577-4.131a1.676 1.676 0 0 0-2.843 1.777z" class="cls-2" transform="translate(-10.299 -3.457)"/><path id="Path_36779" d="m25 71.131-9.2-3.6v7.108a1.3 1.3 0 0 0 .844 1.2l13.327 4.531V66.6L26.2 70.865a1.107 1.107 0 0 1-1.2.266z" class="cls-2" transform="translate(-5.675 -35.568)"/><path id="Path_36780" d="M44.909 43.978 40.334 38.2a1.135 1.135 0 0 0-.666-.533l-13.95-4.75a1.233 1.233 0 0 0-.8 0L10.969 37.67a1.331 1.331 0 0 0-.666.533l-4.576 5.775a.631.631 0 0 0 .267.977l13.016 5.11a.631.631 0 0 0 .711-.178l4.842-5.42a1.074 1.074 0 0 1 1.555 0l4.842 5.42a.691.691 0 0 0 .711.178l12.972-5.153a.584.584 0 0 0 .266-.934zm-19.591-1.732-10.085-3.421L25.318 35.4 35.4 38.825z" class="cls-2" transform="translate(0 -16.811)"/><path id="Path_36781" d="M56.876 71.22a1.112 1.112 0 0 1-.8-.355L52.3 66.6v13.727L65.627 75.8a1.3 1.3 0 0 0 .844-1.2v-7.112l-9.2 3.6a.717.717 0 0 1-.395.132z" class="cls-2" transform="translate(-25.96 -35.568)"/></g></g></svg>